<svg width="60" height="60" viewBox="0 0 60 60" fill="none" xmlns="http://www.w3.org/2000/svg">
<rect width="60" height="60" rx="13" fill="#242424"/>
<g clip-path="url(#clip0_2099_6)">
<path d="M44.9553 17.4362H42.564V15.0448C42.564 14.4709 42.093 14 41.5191 14C40.9452 14 40.4743 14.4709 40.4743 15.0448V17.4362H38.0829C37.509 17.4362 37.0381 17.9071 37.0381 18.481C37.0381 19.055 37.509 19.5259 38.0829 19.5259H40.4743V21.9172C40.4743 22.4911 40.9452 22.9621 41.5191 22.9621C42.093 22.9621 42.564 22.4911 42.564 21.9172V19.5259H44.9553C45.5292 19.5259 46.0001 19.055 46.0001 18.481C46.0001 17.9071 45.5292 17.4362 44.9553 17.4362Z" fill="white"/>
<path d="M44.5357 40.1136C43.9912 39.9297 43.3952 40.2167 43.2112 40.7611C42.5711 42.6374 40.7978 43.903 38.8038 43.903H31.4973C28.6277 43.903 25.8169 43.101 23.3814 41.5779L17.3846 37.84L16.4649 37.1778C16.2294 36.9129 16.097 36.5671 16.097 36.2065C16.097 35.4045 16.7518 34.757 17.5465 34.757C17.6863 34.757 17.8261 34.7791 17.9585 34.8159H17.988L22.7486 37.0086C22.7707 37.0159 22.8001 37.0306 22.8222 37.038C23.1239 37.1484 23.4035 37.1999 23.6831 37.1851C25.7433 37.1042 27.0236 35.1028 27.0236 33.3001V17.7968C27.0236 17.0978 27.5902 16.5312 28.2892 16.5312C28.9882 16.5312 29.5548 17.0978 29.5548 17.7968V28.2157C29.5548 28.7897 30.0257 29.2606 30.5996 29.2606C31.1735 29.2606 31.6444 28.7897 31.6444 28.2157L31.6592 27.686C31.6592 27.686 31.6812 27.6271 31.6886 27.5977C31.8284 27.0458 32.3435 26.6411 32.9174 26.6411C33.5649 26.6411 34.1388 27.1341 34.1682 27.7154C34.2345 28.981 35.2057 29.0178 35.3161 29.0178C35.7134 29.0178 36.2358 28.7749 36.3977 28.0759C36.4272 27.9508 36.4492 27.8184 36.4639 27.7007C36.5522 26.9722 37.2513 26.6632 37.7222 26.7221C38.5021 26.8177 38.767 27.4063 38.7964 27.7375C38.7964 27.7816 38.8185 27.9508 38.8553 28.1201C39.0466 29.1134 39.6573 29.2606 40.0031 29.2606C40.2533 29.2606 40.7242 29.1723 41.0627 28.5616L41.0848 28.5174C41.1731 28.3335 41.4527 27.7595 42.1958 27.7595C43.0347 27.7595 43.4761 28.2452 43.4761 29.1649V34.8306C43.4761 35.4045 43.947 35.8754 44.521 35.8754C45.0949 35.8754 45.5658 35.4045 45.5658 34.8306V29.1649C45.5658 27.215 44.1163 25.7949 42.1149 25.7949C41.5704 25.7949 41.0333 25.9421 40.5476 26.2143L40.4005 26.2953L40.2901 26.1628C40.1577 26.001 40.0031 25.8464 39.8266 25.7066C39.1643 25.1622 38.3476 24.8605 37.5309 24.8605C36.8245 24.8605 36.1181 25.0959 35.5442 25.5227L35.4044 25.6257L35.2793 25.508C35.2793 25.508 35.2057 25.4418 35.1689 25.405C34.5435 24.8531 33.7415 24.5441 32.91 24.5441C32.5716 24.5441 32.2331 24.5956 31.9093 24.6986L31.6444 24.7795V17.7968C31.6444 15.9499 30.1361 14.4415 28.2892 14.4415C26.4423 14.4415 24.9339 15.9499 24.9339 17.7968V33.3075C24.9339 33.9918 24.4777 35.0219 23.661 35.1028H23.6095L18.7974 32.9028C18.7679 32.8881 18.7311 32.8734 18.7017 32.866C18.3338 32.7409 17.9438 32.6747 17.5539 32.6747C15.604 32.6747 14.0146 34.264 14.0146 36.2139C14.0146 37.1704 14.3899 38.0681 15.0742 38.745C15.111 38.7818 15.1551 38.8186 15.1993 38.8481L16.2 39.5618C16.2 39.5618 16.2368 39.5839 16.2515 39.5986L22.2777 43.3585C25.0443 45.0877 28.2377 46 31.4973 46H38.8038C41.6955 46 44.2634 44.1679 45.1905 41.4454C45.3745 40.9009 45.0875 40.3049 44.543 40.121L44.5357 40.1136Z" fill="white"/>
</g>
<defs>
<clipPath id="clip0_2099_6">
<rect width="32" height="32" fill="white" transform="translate(14 14)"/>
</clipPath>
</defs>
</svg>
