<svg width="60" height="60" viewBox="0 0 60 60" fill="none" xmlns="http://www.w3.org/2000/svg">
<rect y="0.0484619" width="59.9996" height="59.9515" rx="13" fill="#242424"/>
<g clip-path="url(#clip0_2099_5)">
<path d="M26.1727 31.1103L28.4321 33.374C28.6058 33.5536 28.8448 33.647 29.091 33.647C29.3372 33.647 29.5762 33.5464 29.75 33.374L34.2759 28.8467C34.4497 28.667 34.5511 28.4371 34.5511 28.1855C34.5511 27.934 34.4569 27.7041 34.2759 27.5244C34.1021 27.3448 33.8631 27.2513 33.6169 27.2513C33.3707 27.2513 33.1318 27.3519 32.958 27.5244L29.0983 31.3906L27.4979 29.7881C27.3241 29.6084 27.0851 29.515 26.8389 29.515C26.5927 29.515 26.3538 29.6156 26.18 29.7881C26.0062 29.9605 25.9048 30.1977 25.9048 30.4492C25.9048 30.7007 25.9989 30.9307 26.18 31.1103H26.1727Z" fill="white"/>
<path d="M29.9964 20.9203C24.9926 20.9203 20.9229 24.9948 20.9229 29.9964C20.9229 34.998 24.9926 39.0725 29.9964 39.0725C35.0002 39.0725 39.0699 34.998 39.0699 29.9964C39.0699 24.9948 35.0002 20.9203 29.9964 20.9203ZM29.9964 37.2113C26.0208 37.2113 22.7911 33.9776 22.7911 30.0036C22.7911 26.0297 26.0281 22.7959 29.9964 22.7959C33.9647 22.7959 37.2016 26.0297 37.2016 30.0036C37.2016 33.9776 33.9647 37.2113 29.9964 37.2113Z" fill="white"/>
<path d="M45.8334 32.2888C45.9421 31.5342 45.9928 30.7653 45.9928 30.0036C45.9928 29.2418 45.9348 28.4729 45.8334 27.7184C45.7755 27.3016 45.4714 26.9566 45.0586 26.8488L43.5451 26.4536L43.5089 26.3242C43.1976 25.1816 42.7413 24.0822 42.1548 23.0545L42.0896 22.9396L42.8789 21.5886C43.0889 21.2221 43.0672 20.7693 42.8138 20.4244C42.3575 19.8136 41.8506 19.2315 41.3148 18.6925C40.7717 18.1536 40.1924 17.6433 39.5841 17.1906C39.2437 16.9391 38.7875 16.9104 38.4254 17.1259L37.0713 17.9164L36.9554 17.8517C35.9271 17.2625 34.8264 16.8026 33.6823 16.4936L33.5519 16.4576L33.1537 14.9485C33.045 14.5389 32.7047 14.2371 32.2847 14.1724C30.7857 13.9568 29.2071 13.9568 27.7081 14.1724C27.2881 14.2299 26.9477 14.5389 26.8391 14.9485L26.4408 16.4576L26.3105 16.4936C25.1663 16.8026 24.0656 17.2625 23.0373 17.8517L22.9215 17.9164L21.5673 17.1259C21.198 16.9104 20.749 16.9391 20.4087 17.1906C19.8004 17.6433 19.2138 18.1536 18.678 18.6925C18.1349 19.2387 17.628 19.8208 17.179 20.4244C16.9255 20.7621 16.8966 21.2221 17.1138 21.5886L17.9031 22.9396L17.838 23.0545C17.2442 24.0822 16.788 25.1816 16.4838 26.3242L16.4476 26.4536L14.9341 26.8488C14.5214 26.9566 14.2172 27.2944 14.1593 27.7184C14.0507 28.4729 14 29.2418 14 30.0036C14 30.7653 14.0579 31.5414 14.1593 32.2888C14.2172 32.7056 14.5214 33.0505 14.9341 33.1583L16.4476 33.5535L16.4838 33.6829C16.7952 34.8255 17.2514 35.925 17.838 36.9526L17.9031 37.0676L17.1138 38.4186C16.9038 38.7851 16.9255 39.2378 17.179 39.5827C17.6352 40.1864 18.1421 40.7756 18.678 41.3146C19.2211 41.8535 19.8004 42.3638 20.4087 42.8165C20.749 43.068 21.2053 43.0968 21.5673 42.8812L22.9215 42.0907L23.0373 42.1554C24.0656 42.7446 25.1663 43.2045 26.3105 43.5136L26.4408 43.5495L26.8391 45.0586C26.9477 45.4682 27.2881 45.77 27.7081 45.8347C29.2071 46.0503 30.7785 46.0503 32.2847 45.8347C32.7047 45.7772 33.045 45.4682 33.1537 45.0586L33.5519 43.5495L33.6823 43.5136C34.8264 43.2045 35.9271 42.7446 36.9554 42.1554L37.0713 42.0907L38.4254 42.8812C38.7948 43.0968 39.2437 43.068 39.5841 42.8165C40.1924 42.3638 40.7789 41.8535 41.3148 41.3146C41.8579 40.7756 42.3648 40.1864 42.8138 39.5827C43.0672 39.245 43.0962 38.7851 42.8789 38.4186L42.0896 37.0676L42.1548 36.9526C42.7486 35.925 43.2048 34.8255 43.5089 33.6829L43.5451 33.5535L45.0586 33.1583C45.4714 33.0505 45.7755 32.7127 45.8334 32.2888ZM43.842 31.139L43.8276 31.3043L42.3938 31.6779C42.01 31.7785 41.7131 32.0875 41.6334 32.4756C41.3293 33.9056 40.7717 35.2495 39.9751 36.4783C39.7579 36.816 39.7434 37.24 39.9461 37.585L40.692 38.8641L40.5906 38.9863C40.3444 39.2737 40.0837 39.5612 39.8158 39.827C39.5479 40.0929 39.2654 40.3516 38.9758 40.6032L38.8527 40.7109L37.5709 39.9636C37.2234 39.7624 36.8034 39.7696 36.4702 39.9923C35.2464 40.79 33.8995 41.3505 32.473 41.6523C32.0819 41.7386 31.7778 42.026 31.6764 42.4141L31.2998 43.8441L31.1405 43.8585C30.764 43.8872 30.3802 43.9016 29.9964 43.9016C29.6126 43.9016 29.236 43.8872 28.8522 43.8585L28.6929 43.8441L28.3164 42.4141C28.215 42.026 27.9108 41.7386 27.5198 41.6523C26.0932 41.3505 24.7463 40.79 23.5225 39.9923C23.1894 39.7767 22.7622 39.7624 22.4218 39.9636L21.1401 40.7109L21.017 40.6032C20.7273 40.3588 20.4449 40.1001 20.177 39.827C19.909 39.5612 19.6483 39.2737 19.4021 38.9863L19.3007 38.8641L20.0466 37.585C20.2494 37.24 20.2349 36.816 20.0177 36.4783C19.2211 35.2495 18.6635 33.9056 18.3594 32.4756C18.2797 32.0875 17.9828 31.7785 17.599 31.6779L16.1652 31.3043L16.1507 31.1462C16.1217 30.7653 16.1073 30.3844 16.1073 30.0036C16.1073 29.6227 16.1217 29.2418 16.1507 28.861L16.1652 28.6957L17.599 28.322C17.9828 28.2214 18.2797 27.9124 18.3594 27.5243C18.6635 26.0943 19.2211 24.7505 20.0177 23.5216C20.2349 23.1839 20.2494 22.7599 20.0466 22.415L19.3007 21.1358L19.4021 21.0137C19.6483 20.7262 19.909 20.4388 20.177 20.1729C20.4449 19.907 20.7273 19.6483 21.017 19.3968L21.1401 19.289L22.4218 20.0363C22.7694 20.2376 23.1894 20.2304 23.5225 20.0076C24.7536 19.2099 26.0932 18.6494 27.5198 18.3476C27.9108 18.2614 28.215 17.9739 28.3164 17.5859L28.6929 16.1558L28.8522 16.1414C29.6126 16.0768 30.3802 16.0768 31.1333 16.1414L31.2926 16.1558L31.6692 17.5859C31.7705 17.9739 32.0747 18.2614 32.4657 18.3476C33.8923 18.6494 35.2392 19.2099 36.463 20.0076C36.7961 20.2232 37.2234 20.2376 37.5637 20.0363L38.8454 19.289L38.9685 19.3968C39.2582 19.6411 39.5406 19.907 39.8086 20.1729C40.0765 20.4388 40.3372 20.7262 40.5834 21.0137L40.6848 21.1358L39.9389 22.415C39.7361 22.7599 39.7506 23.1839 39.9679 23.5216C40.7644 24.7505 41.322 26.0943 41.6262 27.5243C41.7058 27.9124 42.0027 28.2214 42.3865 28.322L43.8203 28.6957L43.8348 28.861C43.8638 29.2418 43.8783 29.6227 43.8783 30.0036C43.8783 30.3844 43.8638 30.7653 43.8348 31.1462L43.842 31.139Z" fill="white"/>
</g>
<defs>
<clipPath id="clip0_2099_5">
<rect width="32" height="32" fill="white" transform="translate(14 14)"/>
</clipPath>
</defs>
</svg>
