<svg width="61" height="61" viewBox="0 0 61 61" fill="none" xmlns="http://www.w3.org/2000/svg">
<rect x="0.925781" y="0.669189" width="59.9996" height="59.9515" rx="13" fill="#242424"/>
<g clip-path="url(#clip0_10_169)">
<path d="M27.2285 48.7295C35.9551 50.5889 44.5791 45.6817 47.7593 37.4191C47.9918 36.8109 47.7046 36.1258 47.1096 35.8882C46.5146 35.6505 45.8444 35.9441 45.6118 36.5522C42.7873 43.8781 35.2575 48.0304 27.7004 46.4157C21.0118 44.9896 16.1014 39.4323 15.2602 32.7075L15.8962 33.2738C16.375 33.7002 17.1068 33.6512 17.5239 33.1619C17.9411 32.6726 17.8932 31.9246 17.4145 31.4982C14.378 28.779 14.7952 29.1564 14.7268 29.0935C14.7268 29.0935 14.7199 29.0935 14.7131 29.0865C14.2344 28.6881 13.5505 28.758 13.147 29.1984L10.7396 31.8477C10.3088 32.3231 10.3361 33.071 10.8012 33.5114C11.2662 33.9518 11.998 33.9239 12.4289 33.4485L12.9623 32.8613C13.9061 40.7045 19.6304 47.0937 27.2285 48.7155V48.7295Z" fill="white"/>
<path d="M34.6211 12.5123C25.8945 10.6529 17.2705 15.5671 14.0903 23.8227C13.8578 24.4309 14.145 25.1159 14.74 25.3536C15.335 25.5913 16.0053 25.2977 16.2378 24.6895C19.0555 17.3566 26.5921 13.2114 34.1492 14.8191C40.8378 16.2452 45.7482 21.8025 46.5894 28.5272L45.9534 27.961C45.4747 27.5346 44.7429 27.5835 44.3257 28.0729C43.9085 28.5622 43.9564 29.3102 44.4351 29.7366L47.0955 32.1133C47.5537 32.5257 48.2239 32.4978 48.648 32.0923C48.7027 32.0434 48.7642 31.9665 51.1169 29.3871C51.5477 28.9117 51.5204 28.1637 51.0553 27.7233C50.5903 27.283 49.8585 27.3109 49.4276 27.7863L48.8942 28.3735C47.9504 20.5373 42.233 14.1411 34.628 12.5193L34.6211 12.5123Z" fill="white"/>
<path d="M33.3715 22.4247C33.0638 21.9633 32.7834 21.523 32.5166 21.1175L32.1473 20.5513C32.0653 20.4255 31.949 20.3066 31.8259 20.2297C31.5865 20.062 31.2925 20.013 31.0121 20.0759C30.7385 20.1389 30.4991 20.3066 30.335 20.5653C30.0067 21.1035 29.6237 21.6767 29.1176 22.4317C27.1275 25.4166 23.7969 30.4147 23.7969 33.3087C23.7969 35.3289 24.5765 37.2373 25.9922 38.6843C27.4147 40.1103 29.2818 40.8933 31.2446 40.8933C33.2074 40.8933 35.0881 40.0964 36.497 38.6563C37.9126 37.2093 38.6854 35.308 38.6854 33.2877C38.6854 30.4217 35.4848 25.6193 33.3647 22.4387L33.3715 22.4247ZM36.5448 33.2738C36.5448 34.7068 35.9977 36.0699 34.9992 37.1185C34.0076 38.1321 32.6739 38.6913 31.2446 38.6913C29.8152 38.6913 28.509 38.1321 27.49 37.1185C26.4983 36.1049 25.9512 34.7417 25.9512 33.2807C25.9512 31.1207 28.9193 26.6259 30.8821 23.662L30.8958 23.641C30.9984 23.4872 31.101 23.3335 31.1967 23.1797C31.2104 23.1517 31.2309 23.1237 31.2446 23.1028C31.2651 23.1307 31.2788 23.1587 31.2993 23.1797C31.395 23.3335 31.4976 23.4872 31.6002 23.634L31.7849 23.9206C33.6793 26.8147 36.5448 31.1836 36.5448 33.2877V33.2738Z" fill="white"/>
<path d="M31.7853 37.0485C31.9426 37.3281 32.182 37.5239 32.4692 37.6007C32.5581 37.6287 32.6539 37.6357 32.7428 37.6357C32.9274 37.6357 33.0984 37.5868 33.2557 37.4959C34.0149 37.0625 34.6577 36.4334 35.0954 35.6784C35.5605 34.9374 35.8204 34.0566 35.8477 33.1549C35.8887 32.5607 35.4442 32.0434 34.8561 32.0015C34.2747 31.9595 33.7686 32.4139 33.7276 33.029C33.7071 33.5393 33.5498 34.0496 33.2762 34.504C33.0027 34.9584 32.6197 35.3359 32.182 35.5665C31.9426 35.7064 31.7648 35.944 31.6827 36.2167C31.6007 36.5033 31.6349 36.8038 31.7716 37.0485H31.7853Z" fill="white"/>
</g>
<defs>
<clipPath id="clip0_10_169">
<rect width="41" height="37" fill="white" transform="translate(10.4258 12.1208)"/>
</clipPath>
</defs>
</svg>
