<svg width="61" height="61" viewBox="0 0 61 61" fill="none" xmlns="http://www.w3.org/2000/svg">
<rect x="0.0742188" y="0.62085" width="60" height="60" rx="13" fill="#242424"/>
<g clip-path="url(#clip0_10_171)">
<path d="M40.4511 30.8708C39.9966 30.3907 39.3799 30.1277 38.7242 30.1277C38.0684 30.1277 37.4517 30.3907 36.9972 30.8708C32.3488 35.7571 31.375 38.6441 31.375 40.2027C31.375 44.2933 34.673 47.6275 38.7242 47.6275C42.7753 47.6275 46.0733 44.2933 46.0733 40.2027C46.0733 38.6441 45.0995 35.7571 40.4511 30.8708ZM38.7242 45.2008C35.9909 45.2008 33.7706 42.9582 33.7706 40.2027C33.7706 38.6967 35.6663 35.7637 38.7307 32.5544C41.782 35.7637 43.6842 38.6967 43.6842 40.2027C43.6842 42.9582 41.4639 45.2008 38.7307 45.2008" fill="white"/>
<path d="M18.7551 29.6475C16.1712 29.6475 14.0742 31.7716 14.0742 34.3825C14.0742 36.9933 16.1777 39.1175 18.7551 39.1175C21.3325 39.1175 23.436 36.9933 23.436 34.3825C23.436 31.7716 21.3325 29.6475 18.7551 29.6475ZM18.7551 36.6908C17.4956 36.6908 16.4633 35.6583 16.4633 34.3825C16.4633 33.1066 17.4891 32.0742 18.7551 32.0742C20.0211 32.0742 21.0468 33.1066 21.0468 34.3825C21.0468 35.6583 20.0211 36.6908 18.7551 36.6908Z" fill="white"/>
<path d="M29.0262 28.911C29.0262 29.6936 29.6494 30.3249 30.422 30.3249C31.1946 30.3249 31.8178 29.6936 31.8178 28.911C31.8178 25.8595 34.2849 23.3802 37.3232 23.3802C38.0958 23.3802 38.719 22.7489 38.719 21.9663C38.719 21.1837 38.0958 20.5524 37.3232 20.5524C34.2914 20.5524 31.8178 18.0797 31.8178 15.0414C31.8178 14.2588 31.1881 13.6274 30.422 13.6274C29.6559 13.6274 29.0262 14.2588 29.0262 15.0414C29.0262 18.0928 26.5592 20.5721 23.5208 20.5721C22.7483 20.5721 22.125 21.2035 22.125 21.986C22.125 22.7686 22.7483 23.4 23.5208 23.4C26.5527 23.4 29.0262 25.8727 29.0262 28.911ZM30.4285 19.6712C31.0323 20.5787 31.8049 21.3547 32.7073 21.9663C31.8049 22.5779 31.0258 23.3605 30.422 24.2746C29.8182 23.3671 29.0457 22.5911 28.1433 21.9795C29.0457 21.3679 29.8247 20.5853 30.4285 19.6712Z" fill="white"/>
</g>
<defs>
<clipPath id="clip0_10_171">
<rect width="32" height="34" fill="white" transform="translate(14.0742 13.6208)"/>
</clipPath>
</defs>
</svg>
