<svg width="60" height="60" viewBox="0 0 60 60" fill="none" xmlns="http://www.w3.org/2000/svg">
<rect width="59.9996" height="59.8935" rx="13" fill="#242424"/>
<g clip-path="url(#clip0_2099_4)">
<path d="M47.0001 29.9811C47.0001 25.9045 45.4022 22.0098 42.5086 19.0092C39.9489 16.3647 36.6419 14.6371 32.9454 14.0233C32.6353 13.9703 32.3174 14.046 32.063 14.2279C31.8086 14.4173 31.6417 14.6977 31.6178 15.0008C31.5622 15.5691 31.9755 16.0692 32.5717 16.1753C39.4958 17.3497 44.7106 23.2828 44.7106 29.9811C44.7106 33.7243 43.1128 37.2705 40.4099 39.8695C38.8677 41.3546 36.9599 42.4382 34.893 43.1202L35.521 42.0366L36.936 39.6801C37.2858 39.0587 36.9599 38.4601 36.459 38.1949C36.2683 38.0888 36.0536 38.0358 35.839 38.0358C35.5528 38.0358 35.1553 38.1343 34.8612 38.6041L31.7609 43.9006C31.4509 44.4386 31.6496 45.113 32.214 45.4161L37.7787 48.3788C37.9854 48.4546 38.2 48.5001 38.3908 48.5001C38.8359 48.5001 39.2096 48.2727 39.4004 47.8863C39.6309 47.4165 39.5435 46.7497 38.9313 46.439L36.2921 45.06L37.1745 44.6659C39.6945 43.5369 41.8965 41.832 43.5579 39.7331C45.7918 36.9068 46.9762 33.5349 46.9762 29.9811H47.0001Z" fill="white"/>
<path d="M27.5635 44.0824C20.5679 42.9686 15.2895 37.0204 15.2895 30.2538C15.2895 24.9043 18.4057 20.1002 23.4218 17.7134L24.8924 17.0163L22.9051 20.3276C22.5553 20.9489 22.8812 21.5475 23.382 21.8127C23.8829 22.0779 24.5665 22.0552 24.9719 21.396L28.0722 16.0994C28.3823 15.5614 28.1835 14.8871 27.6191 14.584L22.0465 11.6288C21.8319 11.5455 21.6252 11.5 21.4265 11.5C20.7746 11.5 20.4884 11.9774 20.4169 12.1213C20.1863 12.5911 20.2738 13.2579 20.8859 13.5686L23.8431 15.122L22.9369 15.516C16.9032 18.1301 13 23.9192 13 30.2538C13 34.3607 14.6137 38.2706 17.5392 41.2788C20.1307 43.9385 23.4695 45.6509 27.2058 46.242C27.5078 46.2874 27.8417 46.2117 28.0881 46.0222C28.3425 45.8328 28.5015 45.5524 28.5254 45.2418C28.5731 44.6735 28.1597 44.1734 27.5635 44.0824Z" fill="white"/>
</g>
<defs>
<clipPath id="clip0_2099_4">
<rect width="34" height="37" fill="white" transform="translate(13 11.5)"/>
</clipPath>
</defs>
</svg>
