<svg width="60" height="61" viewBox="0 0 60 61" fill="none" xmlns="http://www.w3.org/2000/svg">
<rect y="0.62085" width="59.9996" height="59.8935" rx="13" fill="#242424"/>
<g clip-path="url(#clip0_10_170)">
<path d="M45.4412 28.9648H40.0478C39.1897 28.9648 38.4883 29.6868 38.4883 30.57C38.4883 31.4532 39.1897 32.1751 40.0478 32.1751H45.4412C46.5172 32.1751 47.0007 31.369 47.0007 30.57C47.0007 29.7709 46.5172 28.9648 45.4412 28.9648Z" fill="white"/>
<path d="M32.4812 28.9648H16.5595C15.4835 28.9648 15 29.7709 15 30.57C15 31.369 15.4835 32.1751 16.5595 32.1751H32.4812C33.5571 32.1751 34.0406 31.369 34.0406 30.57C34.0406 29.7709 33.5571 28.9648 32.4812 28.9648Z" fill="white"/>
<path d="M30.8676 17.0281C30.9902 17.4487 31.2626 17.7851 31.6371 17.9884C32.0117 18.1917 32.4407 18.2267 32.8425 18.0935L35.8661 17.1613C36.8944 16.8459 37.1328 15.9276 36.9081 15.1636C36.6901 14.4136 36.0228 13.7968 35.0285 14.0702L31.9572 15.0164C31.535 15.1356 31.2013 15.4089 30.997 15.7945C30.7927 16.173 30.745 16.6146 30.8676 17.0281Z" fill="white"/>
<path d="M16.8123 24.4579C16.9485 24.4369 17.0711 24.3948 17.1937 24.3458L25.924 20.5888C26.319 20.4205 26.6187 20.1051 26.7753 19.7056C26.9319 19.306 26.9251 18.8645 26.7549 18.4649C26.5846 18.0654 26.2714 17.764 25.8764 17.6098C25.6993 17.5397 25.5086 17.5046 25.3248 17.5046C25.1 17.5046 24.8753 17.5537 24.671 17.6518L15.927 21.4088C15.0145 21.8224 14.8919 22.7056 15.069 23.3294C15.246 23.9532 15.8113 24.6261 16.8055 24.4579" fill="white"/>
<path d="M36.1727 45.8714C36.411 45.1144 36.1931 44.1892 35.1716 43.8527L32.1752 42.8574C31.9641 42.7873 31.7802 42.7593 31.61 42.7593C31.1878 42.7593 30.8813 42.9415 30.6838 43.1238C30.248 43.5303 30.0369 44.1962 30.1595 44.792C30.2344 45.1705 30.4864 45.6682 31.215 45.9065L34.2114 46.9018C35.2329 47.2453 35.9343 46.6284 36.1727 45.8714Z" fill="white"/>
<path d="M25.6848 40.334L17.5537 37.0536C17.3154 36.9485 17.0838 36.8994 16.8795 36.8994C16.2258 36.8994 15.7423 37.348 15.5176 37.9088C15.2179 38.6447 15.3541 39.584 16.3484 40.0116L24.4658 43.2849C24.602 43.341 24.7314 43.376 24.8608 43.3971C25.8619 43.5443 26.4135 42.8644 26.5837 42.2405C26.754 41.6167 26.6178 40.7405 25.6848 40.334Z" fill="white"/>
</g>
<defs>
<clipPath id="clip0_10_170">
<rect width="32" height="33" fill="white" transform="translate(15 14)"/>
</clipPath>
</defs>
</svg>
