<svg width="60" height="61" viewBox="0 0 60 61" fill="none" xmlns="http://www.w3.org/2000/svg">
<g clip-path="url(#clip0_2008_42)">
<mask id="mask0_2008_42" style="mask-type:luminance" maskUnits="userSpaceOnUse" x="0" y="0" width="60" height="61">
<path d="M60 0.143555H0V60.1436H60V0.143555Z" fill="white"/>
</mask>
<g mask="url(#mask0_2008_42)">
<mask id="mask1_2008_42" style="mask-type:luminance" maskUnits="userSpaceOnUse" x="0" y="0" width="60" height="61">
<path d="M60 0.143555H0V60.1436H60V0.143555Z" fill="white"/>
</mask>
<g mask="url(#mask1_2008_42)">
<path d="M51.4115 60.1436H8.58846C3.84295 60.1436 0 56.3006 0 51.5551V8.73201C0 3.99218 3.84295 0.143555 8.58846 0.143555H51.4115C56.1571 0.143555 60 3.99218 60 8.73201V51.5551C60 56.3006 56.1514 60.1436 51.4115 60.1436Z" fill="#191919"/>
<path d="M25.8676 17.9676C23.8866 19.0405 20.7645 20.3971 17.1316 20.7661L16.6661 20.8115C16.4504 20.8342 16.2801 21.0102 16.2744 21.2259L16.2517 21.6914C16.2461 21.8617 16.0928 25.8692 17.6425 30.7339C18.5564 33.6005 19.8733 36.172 21.5592 38.3744C23.6765 41.1332 26.3728 43.3129 29.58 44.8456L29.8128 44.9591C29.932 45.0159 30.0682 45.0159 30.1931 44.9591L30.4258 44.8456C33.633 43.3129 36.3293 41.1389 38.4466 38.3744C40.1325 36.172 41.4495 33.6062 42.3634 30.7339C43.913 25.8692 43.7598 21.856 43.7541 21.6914L43.7314 21.2259C43.72 21.0102 43.5554 20.8285 43.3397 20.8115L42.8743 20.7661C39.2413 20.3915 36.1136 19.0348 34.1382 17.9676C32.0095 16.8153 30.6983 15.7254 30.6415 15.68L30.2896 15.3848C30.2101 15.3167 30.1079 15.2827 30.0058 15.2827C29.9036 15.2827 29.8071 15.3167 29.7219 15.3848L29.3757 15.68C29.3757 15.68 28.036 16.7983 25.8733 17.9676M30.3918 17.9449C30.9764 18.3593 31.9358 18.995 33.1505 19.6592C34.5129 20.4028 35.9263 21.0272 37.3397 21.5154C38.6226 21.9582 39.9225 22.2931 41.2054 22.5144C41.546 22.5712 41.7844 22.8721 41.7674 23.2126C41.6822 24.8304 41.387 27.3451 40.4958 30.1549C39.65 32.8058 38.441 35.1786 36.8913 37.1937C35.1316 39.4927 32.9178 41.3489 30.3123 42.7169C30.2158 42.768 30.1079 42.7964 30.0001 42.7964C29.8922 42.7964 29.7844 42.768 29.6879 42.7169C27.0994 41.3546 24.897 39.5097 23.1373 37.2278C21.5933 35.2183 20.3785 32.8626 19.5271 30.2231C18.6188 27.4019 18.3236 24.8531 18.2328 23.2126C18.2158 22.8721 18.4542 22.5769 18.7948 22.5144C20.0777 22.2931 21.3776 21.9582 22.6604 21.5154C24.0796 21.0272 25.4873 20.4028 26.8497 19.6592C28.0644 18.995 29.0237 18.365 29.6084 17.9449C29.8355 17.786 30.1534 17.786 30.3804 17.9449" fill="white"/>
<path d="M36.0283 26.7604C36.3802 26.3403 36.3235 25.7159 35.9034 25.3697C35.6991 25.1994 35.4436 25.1199 35.1768 25.1426C34.9157 25.1653 34.6773 25.2902 34.507 25.4945L28.7738 32.3517L26.2137 29.7916C26.0264 29.6043 25.7767 29.5021 25.5155 29.5021C25.2544 29.5021 25.0047 29.6043 24.8173 29.7916C24.63 29.9789 24.5278 30.2287 24.5278 30.4898C24.5278 30.7509 24.63 31.0007 24.8173 31.188L28.1437 34.5144C28.3311 34.7017 28.5751 34.8039 28.8476 34.8039H28.8817C29.1598 34.7925 29.4209 34.662 29.6026 34.4463L36.034 26.7604H36.0283Z" fill="white"/>
</g>
</g>
</g>
<defs>
<clipPath id="clip0_2008_42">
<rect y="0.143555" width="60" height="60" rx="13" fill="white"/>
</clipPath>
</defs>
</svg>
