<svg width="60" height="60" viewBox="0 0 60 60" fill="none" xmlns="http://www.w3.org/2000/svg">
<g clip-path="url(#clip0_2008_30)">
<mask id="mask0_2008_30" style="mask-type:luminance" maskUnits="userSpaceOnUse" x="0" y="0" width="60" height="60">
<path d="M60 0H0V60H60V0Z" fill="white"/>
</mask>
<g mask="url(#mask0_2008_30)">
<mask id="mask1_2008_30" style="mask-type:luminance" maskUnits="userSpaceOnUse" x="0" y="0" width="60" height="60">
<path d="M60 0H0V60H60V0Z" fill="white"/>
</mask>
<g mask="url(#mask1_2008_30)">
<path d="M51.4069 60H8.5873C3.84645 60 0 56.1535 0 51.4069V8.5873C0 3.84645 3.84645 0 8.5873 0H51.4069C56.1535 0 59.9942 3.84645 59.9942 8.5873V51.4069C59.9942 56.1535 56.1477 59.9942 51.4069 59.9942" fill="#191919"/>
<path d="M38.4178 27.878C38.6048 27.5741 38.6107 27.1883 38.4353 26.8784C38.26 26.5686 37.9326 26.3757 37.576 26.3757H31.1925L32.0343 16.2627C32.0694 15.8126 31.8005 15.3917 31.3679 15.2455C31.2627 15.2105 31.1516 15.1929 31.0464 15.1929C30.719 15.1929 30.4034 15.3566 30.2222 15.643L19.9688 31.4848C19.7701 31.7888 19.7584 32.1746 19.9279 32.4961C20.1033 32.8118 20.4306 33.0105 20.7931 33.0105H27.1824L26.3348 44.0647C26.2997 44.5207 26.5803 44.9416 27.0129 45.0819C27.4396 45.2222 27.9306 45.0351 28.1586 44.6551L38.4119 27.878H38.4178ZM22.6169 31.0347L29.7428 20.0215L29.1407 27.2818C29.1173 27.5565 29.2109 27.8313 29.3979 28.03C29.585 28.2346 29.848 28.3457 30.1228 28.3457H35.8165L28.6263 40.113L29.2459 32.0928C29.2693 31.818 29.1699 31.5491 28.9829 31.3445C28.7958 31.1458 28.5328 31.0289 28.258 31.0289H22.6169V31.0347Z" fill="white"/>
</g>
</g>
</g>
<defs>
<clipPath id="clip0_2008_30">
<rect width="60" height="60" rx="13" fill="white"/>
</clipPath>
</defs>
</svg>
