<svg width="61" height="60" viewBox="0 0 61 60" fill="none" xmlns="http://www.w3.org/2000/svg">
<rect x="0.0292969" y="0.0484619" width="59.9996" height="59.9515" rx="13" fill="#191919"/>
<g clip-path="url(#clip0_2008_57)">
<path fill-rule="evenodd" clip-rule="evenodd" d="M36.6774 14.0036C38.0451 13.9646 39.3401 14.2417 40.5115 14.7442L41.5047 15.1695L36.5148 20.1592C35.5915 21.0815 35.5915 22.5627 36.5148 23.486C37.4372 24.4092 38.9193 24.4092 39.8417 23.486L44.829 18.499L45.2561 19.4877C45.7604 20.6544 46.0276 21.9403 45.9976 23.3015C45.9086 27.347 43.0305 30.8646 39.1365 31.8906C37.6389 32.2849 36.2149 32.2486 34.9026 31.9487L22.2737 44.577C21.3649 45.4857 20.1345 46 18.8477 46C16.1714 46 13.9985 43.8273 13.9985 41.1512C13.9985 39.8654 14.5129 38.6341 15.4216 37.7254L28.0524 25.098C27.7525 23.7949 27.7162 22.381 28.1006 20.8943C29.1157 17.0015 32.6226 14.1036 36.6774 14.0036ZM38.8812 15.7229C38.1914 15.5366 37.4662 15.4448 36.7183 15.4667H36.7147C33.3368 15.5493 30.3743 17.9765 29.5174 21.2615C29.1629 22.6309 29.2356 23.9258 29.5682 25.1253L29.6827 25.5369L16.4585 38.7613C15.8224 39.3974 15.4644 40.257 15.4644 41.1512C15.4644 43.0186 16.9811 44.5361 18.8495 44.5361C19.7437 44.5361 20.6034 44.1781 21.2395 43.542L34.4637 30.3185L34.8745 30.4321C36.084 30.7656 37.3881 30.8374 38.7648 30.4748C42.05 29.6097 44.4609 26.6392 44.5354 23.2697C44.5518 22.52 44.4618 21.8012 44.2792 21.1197L40.8768 24.5219C39.3819 26.0167 36.9746 26.0167 35.4797 24.5219C33.9848 23.0271 33.9848 20.619 35.4797 19.1251L38.8812 15.7238V15.7229Z" fill="white"/>
</g>
<defs>
<clipPath id="clip0_2008_57">
<rect width="32" height="32" fill="white" transform="translate(14 14)"/>
</clipPath>
</defs>
</svg>
